<!DOCTYPE svg PUBLIC "-//W3C//DTD SVG 1.1//EN" "http://www.w3.org/Graphics/SVG/1.1/DTD/svg11.dtd">
<!-- Uploaded to: SVG Repo, www.svgrepo.com, Transformed by: SVG Repo Mixer Tools -->
<svg width="800px" height="800px" viewBox="0 0 24 24" fill="none" xmlns="http://www.w3.org/2000/svg" stroke="#ffffff" stroke-width="0.672">
<g id="SVGRepo_bgCarrier" stroke-width="0"/>
<g id="SVGRepo_tracerCarrier" stroke-linecap="round" stroke-linejoin="round"/>
<g id="SVGRepo_iconCarrier"> <path fill-rule="evenodd" clip-rule="evenodd" d="M8.25 9C8.25 7.18578 9.53832 5.67247 11.25 5.32501V10.5H8.25V9ZM8.25 12V15C8.25 17.0711 9.92893 18.75 12 18.75C14.0711 18.75 15.75 17.0711 15.75 15V12H8.25ZM15.75 10.5V9C15.75 7.18578 14.4617 5.67247 12.75 5.32501V10.5H15.75ZM6.75 9C6.75 6.10051 9.1005 3.75 12 3.75C14.8995 3.75 17.25 6.10051 17.25 9L17.25 15C17.25 17.8995 14.8995 20.25 12 20.25C9.10051 20.25 6.75 17.8995 6.75 15V9Z" fill="#ffffff"/> </g>
</svg>